<svg xmlns="http://www.w3.org/2000/svg" width="85" height="100%" viewBox="0 0 65 15"><g fill="none" fill-rule="evenodd"><g><g><path fill="#212121" fill-rule="nonzero" d="M20.74 1.102c2.117 0 3.343 1.223 3.343 2.869 0 1.102-.696 2.007-1.574 2.294.969.227 1.907 1.117 1.907 2.506 0 1.734-1.305 3.009-3.298 3.034H16.73V1.102h4.01zm-.182 6.25H19.06v2.506h1.498c.923 0 1.482-.483 1.482-1.253 0-.732-.533-1.243-1.454-1.253h-.028zM20.33 3.08h-1.27v2.31h1.3c.832 0 1.377-.438 1.377-1.163 0-.687-.46-1.138-1.38-1.147h-.027zM26.357 3.366c.755 0 1.36-.604 1.36-1.344 0-.74-.605-1.344-1.36-1.344-.724 0-1.328.604-1.328 1.344 0 .74.604 1.344 1.328 1.344zM27.527 11.805L27.527 4.309 25.217 4.309 25.217 11.805zM30.997 11.805V8.524c0-1.497.829-2.041 1.748-2.041.226 0 .467.015.723.075V4.29c-.15-.045-.376-.076-.603-.076-.602 0-1.552.242-1.944 1.09V4.29h-2.215v7.515h2.29zM41.518.867v9.69l.001.086v.056l.002.082.002.08.002.05.003.1.004.096.004.09.006.105.007.116.009.119.007.1.013.144h-2.2l-.005-.036-.01-.073-.007-.052-.006-.058-.007-.064-.003-.033-.006-.07-.003-.036-.004-.055-.002-.038-.002-.038-.003-.057-.001-.057V11.057c-.347.513-1.1.89-2.004.89-2.109 0-3.705-1.628-3.705-3.935 0-2.23 1.506-3.904 3.63-3.904.986 0 1.543.286 1.83.548l.021.02c.022.02.041.041.06.06l.017.02.016.02.016.019.015.019.013.018.013.018.012.018.005.009V.867h2.26zM37.6 6.173c-.888 0-1.687.603-1.687 1.854 0 1.236.799 1.87 1.687 1.87.889 0 1.687-.634 1.687-1.87 0-1.25-.798-1.854-1.687-1.854zM45.884 4.073c2.323 0 3.756 1.436 3.756 3.855 0 .318-.03.666-.045.711h-5.219c.045.847.815 1.452 1.705 1.452.83 0 1.297-.394 1.508-.983l1.916.544c-.362 1.3-1.554 2.389-3.455 2.389-2.066 0-3.906-1.482-3.906-4.007 0-2.419 1.795-3.961 3.74-3.961zm.03 1.814c-.965 0-1.447.71-1.493 1.27h3.002c-.03-.574-.422-1.27-1.508-1.27z" transform="translate(-24 -17) translate(24 17)"></path><path fill="#212121" fill-rule="nonzero" d="M53.035 14.681L57.656 4.309 55.224 4.309 53.563 8.319 51.736 4.309 49.169 4.309 52.325 10.792 50.619 14.681zM60.878 4.073c2.323 0 3.756 1.436 3.756 3.855 0 .318-.03.666-.045.711h-5.22c.046.847.815 1.452 1.705 1.452.83 0 1.297-.394 1.508-.983l1.916.544c-.362 1.3-1.554 2.389-3.454 2.389-2.067 0-3.907-1.482-3.907-4.007 0-2.419 1.795-3.961 3.74-3.961zm.03 1.814c-.965 0-1.448.71-1.493 1.27h3.001c-.03-.574-.422-1.27-1.508-1.27z" transform="translate(-24 -17) translate(24 17)"></path><path fill="#1976D2" d="M8.408 7.006l-.002-.001-.088-.035L5.32 5.785c-.083-.036-.173-.056-.269-.056-.366 0-.662.295-.662.658 0 .15.051.289.136.4l.005.006c.015.019.031.037.049.055l2.15 2.456c.267.3.658.49 1.094.49.808 0 1.463-.651 1.463-1.454 0-.597-.361-1.11-.878-1.334M7.403 2.095c.679-.212 1.41.137 1.633.78.224.641-.145 1.333-.824 1.545-.678.211-1.41-.138-1.633-.78-.223-.642.146-1.334.824-1.545m4.717.767c-.099-.14-.242-.228-.398-.268v-.002l-.586-.153c-.008-.028-.014-.056-.023-.083C10.506.558 8.517-.419 6.671.173c-.956.306-1.683.975-2.08 1.797L3.533 3.652l-2.51-.991-.001.002C.864 2.598.684 2.584.508 2.64c-.388.125-.598.532-.47.91.018.054.044.105.074.152l-.004.005 2.619 3.468.005.01.008.009 1.874 2.628c.818 1.462 2.59 2.343 4.299 1.795 1.845-.592 2.849-2.529 2.241-4.327-.189-.56-.512-1.039-.923-1.417.518-.495.87-1.134 1.001-1.827l.566-.163v-.007c.05-.019.099-.041.145-.073.316-.212.395-.633.177-.941" transform="translate(-24 -17) translate(24 17)"></path></g></g></g></svg>